<svg xmlns="http://www.w3.org/2000/svg" xmlns:xlink="http://www.w3.org/1999/xlink" width="500" zoomAndPan="magnify" viewBox="0 0 375 374.999991" height="500" preserveAspectRatio="xMidYMid meet" version="1.0"><path fill="#231f20" d="M 178.660156 208.625 C 174.738281 208.625 171.5625 205.445312 171.5625 201.523438 C 171.5625 197.601562 174.738281 194.425781 178.660156 194.425781 C 182.582031 194.425781 185.761719 197.601562 185.761719 201.523438 C 185.761719 205.445312 182.582031 208.625 178.660156 208.625 Z M 228.421875 165.605469 C 227.617188 171.625 222.472656 176.269531 216.230469 176.269531 C 209.429688 176.269531 203.917969 170.757812 203.917969 163.960938 C 203.917969 157.160156 209.429688 151.648438 216.230469 151.648438 C 216.59375 151.648438 216.945312 151.671875 217.300781 151.703125 C 209.160156 144.777344 198.621094 140.589844 187.09375 140.589844 C 161.332031 140.589844 140.449219 161.46875 140.449219 187.230469 C 140.449219 212.988281 161.332031 233.871094 187.09375 233.871094 C 212.855469 233.871094 233.738281 212.988281 233.738281 187.230469 C 233.738281 179.421875 231.8125 172.070312 228.421875 165.605469 " fill-opacity="1" fill-rule="nonzero"/><path fill="#89cf25" d="M 237.859375 155.835938 C 236.59375 115.316406 202.71875 83.492188 162.195312 84.757812 C 137.542969 85.527344 116.113281 98.363281 103.386719 117.421875 C 116.894531 107.148438 133.390625 101.546875 150.472656 101.546875 C 152.296875 101.546875 154.117188 101.621094 155.925781 101.746094 C 158.15625 101.472656 160.417969 101.292969 162.707031 101.222656 C 200.445312 100.042969 232.417969 127.566406 237.652344 164.082031 C 237.867188 161.371094 237.945312 158.617188 237.859375 155.835938 " fill-opacity="1" fill-rule="nonzero"/><path fill="#f7c80b" d="M 102.703125 145.644531 C 104.324219 144.25 105.996094 142.933594 107.714844 141.6875 C 109.242188 140.046875 110.855469 138.464844 112.558594 136.941406 C 140.707031 111.789062 182.890625 112.320312 210.378906 136.929688 C 208.800781 134.714844 207.085938 132.554688 205.234375 130.480469 C 178.21875 100.25 131.808594 97.648438 101.578125 124.660156 C 83.1875 141.09375 75.023438 164.703125 77.527344 187.484375 C 81.207031 171.238281 89.996094 156.554688 102.703125 145.644531 " fill-opacity="1" fill-rule="nonzero"/><path fill="#f0441d" d="M 163.941406 132.023438 C 123.8125 126.230469 86.589844 154.0625 80.796875 194.191406 C 77.273438 218.589844 86.191406 241.917969 102.746094 257.757812 C 94.246094 241.304688 91.902344 222.566406 96.179688 204.347656 C 96.265625 203.996094 96.355469 203.644531 96.441406 203.292969 C 96.558594 201.054688 96.777344 198.804688 97.101562 196.542969 C 102.496094 159.179688 135.152344 132.476562 172.027344 133.660156 C 169.394531 132.976562 166.695312 132.421875 163.941406 132.023438 " fill-opacity="1" fill-rule="nonzero"/><path fill="#ed1346" d="M 127.890625 258.703125 C 127.726562 258.378906 127.570312 258.050781 127.410156 257.722656 C 126.058594 255.933594 124.78125 254.070312 123.578125 252.128906 C 103.6875 220.042969 111.539062 178.597656 140.550781 155.800781 C 138.09375 156.972656 135.667969 158.28125 133.304688 159.75 C 98.839844 181.101562 88.214844 226.347656 109.574219 260.808594 C 122.5625 281.761719 144.386719 293.902344 167.246094 295.398438 C 150.164062 288.257812 136.324219 275.410156 127.890625 258.703125 " fill-opacity="1" fill-rule="nonzero"/><path fill="#9a158e" d="M 217.828125 286.28125 C 206.824219 286.28125 196.0625 283.957031 186.117188 279.519531 C 183.933594 279.015625 181.757812 278.410156 179.589844 277.699219 C 143.730469 265.898438 123.101562 229.105469 130.667969 193 C 129.539062 195.476562 128.523438 198.035156 127.65625 200.675781 C 114.980469 239.1875 135.929688 280.675781 174.445312 293.347656 C 197.867188 301.054688 222.394531 296.320312 240.867188 282.769531 C 233.390625 285.097656 225.664062 286.28125 217.828125 286.28125 " fill-opacity="1" fill-rule="nonzero"/><path fill="#383494" d="M 245.046875 258.511719 C 243.074219 259.515625 241.035156 260.441406 238.9375 261.28125 C 203.878906 275.292969 164.425781 260.363281 147.011719 227.839844 C 147.738281 230.464844 148.605469 233.078125 149.640625 235.660156 C 164.6875 273.308594 207.40625 291.625 245.054688 276.578125 C 267.960938 267.421875 283.710938 248.023438 289.144531 225.753906 C 278.820312 241.828125 263.082031 253.371094 245.046875 258.511719 " fill-opacity="1" fill-rule="nonzero"/><path fill="#3d6abc" d="M 289.484375 151.105469 C 291.84375 169.472656 287.636719 187.882812 277.382812 203.539062 C 277.183594 203.84375 276.984375 204.136719 276.78125 204.433594 C 275.90625 206.5 274.929688 208.546875 273.847656 210.5625 C 256 243.828125 216.179688 257.75 181.929688 244.027344 C 184.171875 245.570312 186.519531 247.015625 188.972656 248.328125 C 224.699219 267.496094 269.199219 254.074219 288.363281 218.347656 C 300.023438 196.625 299.621094 171.652344 289.484375 151.105469 " fill-opacity="1" fill-rule="nonzero"/><path fill="#3d99c4" d="M 284.109375 145.90625 C 279.074219 121.773438 262.714844 102.902344 241.742188 93.679688 C 255.355469 106.230469 263.964844 123.035156 266.179688 141.621094 C 266.222656 141.980469 266.253906 142.339844 266.292969 142.695312 C 266.949219 144.839844 267.515625 147.035156 267.984375 149.273438 C 275.695312 186.226562 254.140625 222.488281 219.085938 233.984375 C 221.796875 233.726562 224.519531 233.324219 227.246094 232.757812 C 266.933594 224.476562 292.394531 185.59375 284.109375 145.90625 " fill-opacity="1" fill-rule="nonzero"/><path fill="#37b63f" d="M 234.285156 93.148438 C 214.914062 77.898438 190.25 73.953125 168.257812 80.367188 C 187.140625 81.257812 204.886719 88.914062 218.585938 102.148438 C 220.460938 103.367188 222.300781 104.679688 224.09375 106.089844 C 253.757812 129.441406 260.554688 171.074219 241.09375 202.414062 C 243 200.472656 244.832031 198.414062 246.550781 196.226562 C 271.632812 164.375 266.140625 118.226562 234.285156 93.148438 " fill-opacity="1" fill-rule="nonzero"/></svg>